<svg width="14" height="14" viewBox="0 0 14 14" fill="none" xmlns="http://www.w3.org/2000/svg">
<path d="M6.99998 9.80002C6.81699 9.80084 6.63595 9.83772 6.46722 9.90853C6.29848 9.97934 6.14535 10.0827 6.01657 10.2127C5.8878 10.3427 5.7859 10.4968 5.7167 10.6662C5.6475 10.8356 5.61236 11.017 5.61328 11.2C5.61328 11.9728 6.23418 12.6 6.99998 12.6C7.18291 12.5991 7.36387 12.5622 7.53253 12.4913C7.70119 12.4205 7.85423 12.3171 7.98294 12.1871C8.11164 12.0571 8.21347 11.903 8.28263 11.7336C8.35178 11.5643 8.3869 11.383 8.38598 11.2C8.38598 10.4265 7.76578 9.80002 6.99998 9.80002ZM4.05998 8.23062L5.03998 9.22042C5.29611 8.96067 5.60131 8.75441 5.93785 8.61362C6.27438 8.47284 6.63554 8.40034 7.00033 8.40034C7.36513 8.40034 7.72628 8.47284 8.06282 8.61362C8.39935 8.75441 8.70455 8.96067 8.96068 9.22042L9.93998 8.23062C9.55587 7.84102 9.09816 7.53165 8.59345 7.32049C8.08874 7.10933 7.54709 7.00059 6.99998 7.00059C6.45288 7.00059 5.91123 7.10933 5.40651 7.32049C4.9018 7.53165 4.44409 7.84102 4.05998 8.23062ZM2.09998 6.24962L3.07998 7.23942C3.59211 6.72006 4.20235 6.30766 4.87524 6.02618C5.54812 5.74469 6.27024 5.59974 6.99963 5.59974C7.72902 5.59974 8.45114 5.74469 9.12403 6.02618C9.79691 6.30766 10.4071 6.72006 10.9193 7.23942L11.9 6.24962C11.2598 5.60038 10.4969 5.08484 9.6557 4.73296C8.81452 4.38108 7.9118 4.19987 6.99998 4.19987C6.08817 4.19987 5.18544 4.38108 4.34426 4.73296C3.50308 5.08484 2.74021 5.60038 2.09998 6.24962ZM0.139282 4.27002L1.11928 5.25982C1.88756 4.4806 2.80304 3.86185 3.81252 3.43952C4.82201 3.01719 5.90536 2.79971 6.99963 2.79971C8.0939 2.79971 9.17725 3.01719 10.1867 3.43952C11.1962 3.86185 12.1117 4.4806 12.88 5.25982L13.86 4.27002C12.9637 3.36094 11.8956 2.63906 10.7179 2.14635C9.54017 1.65363 8.27627 1.3999 6.99963 1.3999C5.723 1.3999 4.45909 1.65363 3.28137 2.14635C2.10364 2.63906 1.03559 3.36094 0.139282 4.27002Z" fill="#6B6B6B"/>
</svg>
