<svg width="18" height="15" viewBox="0 0 18 15" fill="none" xmlns="http://www.w3.org/2000/svg">
<path fill-rule="evenodd" clip-rule="evenodd" d="M1.16787 6.82519C1.11466 6.76946 1.07244 6.70325 1.04363 6.63036C1.01483 6.55747 1 6.47933 1 6.40042C1 6.3215 1.01483 6.24336 1.04363 6.17047C1.07244 6.09758 1.11466 6.03138 1.16787 5.97564L5.739 1.17595C5.8463 1.06329 5.99182 1 6.14355 1C6.29528 1 6.4408 1.06329 6.5481 1.17595C6.65539 1.2886 6.71566 1.4414 6.71566 1.60072C6.71566 1.76004 6.65539 1.91284 6.5481 2.02549L2.95175 5.80046H14.143C14.9008 5.80046 15.6274 6.11651 16.1632 6.67908C16.699 7.24165 17 8.00467 17 8.80027V13.4C17 13.5592 16.9398 13.7118 16.8326 13.8243C16.7255 13.9368 16.5802 14 16.4286 14C16.2771 14 16.1317 13.9368 16.0246 13.8243C15.9174 13.7118 15.8572 13.5592 15.8572 13.4V8.80027C15.8572 8.32291 15.6766 7.8651 15.3551 7.52755C15.0337 7.19001 14.5977 7.00038 14.143 7.00038H2.95175L6.5481 10.7753C6.60122 10.8311 6.64336 10.8973 6.67211 10.9702C6.70087 11.0431 6.71566 11.1212 6.71566 11.2001C6.71566 11.279 6.70087 11.3571 6.67211 11.43C6.64336 11.5029 6.60122 11.5691 6.5481 11.6249C6.49497 11.6807 6.4319 11.7249 6.36249 11.7551C6.29308 11.7853 6.21868 11.8008 6.14355 11.8008C6.06842 11.8008 5.99402 11.7853 5.92461 11.7551C5.8552 11.7249 5.79213 11.6807 5.739 11.6249L1.16787 6.82519Z" fill="#333333" stroke="#333333"/>
</svg>
