<svg width="4" height="15" viewBox="0 0 4 15" fill="none" xmlns="http://www.w3.org/2000/svg">
<path d="M3.46154 13.2692C3.46154 13.7283 3.27919 14.1685 2.95461 14.4931C2.63003 14.8177 2.1898 15 1.73077 15C1.27174 15 0.831513 14.8177 0.50693 14.4931C0.182348 14.1685 0 13.7283 0 13.2692C0 12.8102 0.182348 12.37 0.50693 12.0454C0.831513 11.7208 1.27174 11.5385 1.73077 11.5385C2.1898 11.5385 2.63003 11.7208 2.95461 12.0454C3.27919 12.37 3.46154 12.8102 3.46154 13.2692ZM3.46154 7.5C3.46154 7.95903 3.27919 8.39926 2.95461 8.72384C2.63003 9.04842 2.1898 9.23077 1.73077 9.23077C1.27174 9.23077 0.831513 9.04842 0.50693 8.72384C0.182348 8.39926 0 7.95903 0 7.5C0 7.04097 0.182348 6.60074 0.50693 6.27616C0.831513 5.95158 1.27174 5.76923 1.73077 5.76923C2.1898 5.76923 2.63003 5.95158 2.95461 6.27616C3.27919 6.60074 3.46154 7.04097 3.46154 7.5ZM3.46154 1.73077C3.46154 2.1898 3.27919 2.63003 2.95461 2.95461C2.63003 3.27919 2.1898 3.46154 1.73077 3.46154C1.27174 3.46154 0.831513 3.27919 0.50693 2.95461C0.182348 2.63003 0 2.1898 0 1.73077C0 1.27174 0.182348 0.831513 0.50693 0.506931C0.831513 0.182348 1.27174 0 1.73077 0C2.1898 0 2.63003 0.182348 2.95461 0.506931C3.27919 0.831513 3.46154 1.27174 3.46154 1.73077Z" fill="#333333"/>
</svg>
