<svg width="348" height="20" viewBox="0 0 348 20" fill="none" xmlns="http://www.w3.org/2000/svg">
<path d="M347.462 16.2692C347.462 16.7283 347.279 17.1685 346.955 17.4931C346.63 17.8177 346.19 18 345.731 18C345.272 18 344.832 17.8177 344.507 17.4931C344.182 17.1685 344 16.7283 344 16.2692C344 15.8102 344.182 15.37 344.507 15.0454C344.832 14.7208 345.272 14.5385 345.731 14.5385C346.19 14.5385 346.63 14.7208 346.955 15.0454C347.279 15.37 347.462 15.8102 347.462 16.2692ZM347.462 10.5C347.462 10.959 347.279 11.3993 346.955 11.7238C346.63 12.0484 346.19 12.2308 345.731 12.2308C345.272 12.2308 344.832 12.0484 344.507 11.7238C344.182 11.3993 344 10.959 344 10.5C344 10.041 344.182 9.60074 344.507 9.27616C344.832 8.95158 345.272 8.76923 345.731 8.76923C346.19 8.76923 346.63 8.95158 346.955 9.27616C347.279 9.60074 347.462 10.041 347.462 10.5ZM347.462 4.73077C347.462 5.1898 347.279 5.63003 346.955 5.95461C346.63 6.27919 346.19 6.46154 345.731 6.46154C345.272 6.46154 344.832 6.27919 344.507 5.95461C344.182 5.63003 344 5.1898 344 4.73077C344 4.27174 344.182 3.83151 344.507 3.50693C344.832 3.18235 345.272 3 345.731 3C346.19 3 346.63 3.18235 346.955 3.50693C347.279 3.83151 347.462 4.27174 347.462 4.73077Z" fill="#333333"/>
<path d="M298.7 4H312.3C313.235 4 314 4.765 314 5.7V15.9C314 16.835 313.235 17.6 312.3 17.6H298.7C297.765 17.6 297 16.835 297 15.9V5.7C297 4.765 297.765 4 298.7 4Z" stroke="#333333" stroke-width="2" stroke-linecap="round" stroke-linejoin="round"/>
<path d="M314 5.69995L305.5 11.65L297 5.69995" stroke="#333333" stroke-width="2" stroke-linecap="round" stroke-linejoin="round"/>
<path d="M258 1C257.609 1 257.205 1.13875 256.922 1.42225C256.639 1.705 256.5 2.1085 256.5 2.5V3.25H252V4.75H252.75V16.75C252.75 17.9837 253.766 19 255 19H264C265.234 19 266.25 17.9837 266.25 16.75V4.75H267V3.25H262.5V2.5C262.5 2.1085 262.361 1.705 262.078 1.4215C261.795 1.1395 261.392 1 261 1H258ZM258 2.5H261V3.25H258V2.5ZM254.25 4.75H264.75V16.75C264.75 17.1663 264.416 17.5 264 17.5H255C254.584 17.5 254.25 17.1663 254.25 16.75V4.75ZM255.75 7V15.25H257.25V7H255.75ZM258.75 7V15.25H260.25V7H258.75ZM261.75 7V15.25H263.25V7H261.75Z" fill="#333333" stroke="#333333" stroke-width="0.25"/>
<path fill-rule="evenodd" clip-rule="evenodd" d="M17 10.5C17 10.7841 16.8881 11.0566 16.6888 11.2575C16.4896 11.4584 16.2194 11.5712 15.9376 11.5712H3.62887L8.19073 16.169C8.28951 16.2686 8.36786 16.3868 8.42132 16.517C8.47478 16.6471 8.50229 16.7866 8.50229 16.9274C8.50229 17.0683 8.47478 17.2077 8.42132 17.3379C8.36786 17.468 8.28951 17.5862 8.19073 17.6858C8.09196 17.7854 7.9747 17.8645 7.84564 17.9184C7.71658 17.9723 7.57826 18 7.43857 18C7.29888 18 7.16056 17.9723 7.0315 17.9184C6.90244 17.8645 6.78518 17.7854 6.6864 17.6858L0.312114 11.2584C0.213179 11.1589 0.134683 11.0407 0.0811257 10.9106C0.027568 10.7804 0 10.6409 0 10.5C0 10.3591 0.027568 10.2196 0.0811257 10.0894C0.134683 9.95929 0.213179 9.84107 0.312114 9.74157L6.6864 3.31415C6.88589 3.113 7.15645 3 7.43857 3C7.72069 3 7.99125 3.113 8.19073 3.31415C8.39022 3.5153 8.50229 3.78812 8.50229 4.07259C8.50229 4.35706 8.39022 4.62987 8.19073 4.83102L3.62887 9.42877H15.9376C16.2194 9.42877 16.4896 9.54163 16.6888 9.74252C16.8881 9.94342 17 10.2159 17 10.5Z" fill="#333333"/>
<path d="M213.499 13.44L216.219 10.72L217.352 11.697L217.279 11.782L213.278 15.782C213.15 15.9089 212.982 15.9859 212.803 15.9991C212.624 16.0123 212.446 15.9608 212.302 15.854L212.218 15.782L208.218 11.78L209.194 10.647L209.279 10.72L211.999 13.442V8.75H213.499V13.44Z" fill="#333333" stroke="#333333" stroke-width="0.5" stroke-linecap="square" stroke-linejoin="bevel"/>
<path d="M207.069 5C206.255 5 205.475 5.26632 204.899 5.74037C204.323 6.21442 204 6.85737 204 7.52778V16.4722C204 17.1426 204.323 17.7856 204.899 18.2596C205.475 18.7337 206.255 19 207.069 19H217.931C218.745 19 219.525 18.7337 220.101 18.2596C220.677 17.7856 221 17.1426 221 16.4722V7.52778C221 6.85737 220.677 6.21442 220.101 5.74037C219.525 5.26632 218.745 5 217.931 5H207.069ZM205.417 7.52778C205.417 6.77644 206.157 6.16667 207.069 6.16667H217.931C218.843 6.16667 219.583 6.77644 219.583 7.52778V16.4722C219.583 16.8332 219.409 17.1794 219.099 17.4347C218.789 17.6899 218.369 17.8333 217.931 17.8333H207.069C206.631 17.8333 206.211 17.6899 205.901 17.4347C205.591 17.1794 205.417 16.8332 205.417 16.4722V7.52778Z" fill="#333333"/>
<path d="M206.406 3L205 6H220L219.062 3H206.406Z" stroke="#333333" stroke-width="1.5" stroke-linecap="square" stroke-linejoin="round"/>
</svg>
