<svg width="15" height="15" viewBox="0 0 15 15" fill="none" xmlns="http://www.w3.org/2000/svg">
<path d="M13.7977 3.85394C13.7541 3.89747 13.7025 3.932 13.6456 3.95556C13.5887 3.97911 13.5278 3.99124 13.4662 3.99124C13.4046 3.99124 13.3437 3.97911 13.2868 3.95556C13.2299 3.932 13.1783 3.89747 13.1347 3.85394L11.1461 1.86527C11.059 1.77718 11.0104 1.65824 11.0108 1.53441C11.0111 1.41058 11.0605 1.29193 11.148 1.20437C11.2356 1.11681 11.3542 1.06745 11.4781 1.06707C11.6019 1.06668 11.7208 1.11531 11.8089 1.20234L13.7977 3.19101C13.8412 3.23454 13.8757 3.28621 13.8993 3.34308C13.9229 3.39996 13.935 3.46091 13.935 3.52247C13.935 3.58403 13.9229 3.64499 13.8993 3.70186C13.8757 3.75873 13.8412 3.81041 13.7977 3.85394ZM3.85396 1.20234C3.76606 1.11444 3.64684 1.06506 3.52253 1.06506C3.39822 1.06506 3.279 1.11444 3.19109 1.20234L1.20236 3.19101C1.11445 3.27892 1.06506 3.39815 1.06506 3.52247C1.06506 3.6468 1.11445 3.76603 1.20236 3.85394C1.29027 3.94185 1.4095 3.99123 1.53383 3.99123C1.65815 3.99123 1.77738 3.94185 1.86529 3.85394L3.85396 1.86527C3.89749 1.82174 3.93202 1.77006 3.95558 1.71319C3.97914 1.65632 3.99126 1.59536 3.99126 1.5338C3.99126 1.47224 3.97914 1.41129 3.95558 1.35441C3.93202 1.29754 3.89749 1.24586 3.85396 1.20234ZM13.1233 7.3562C13.1244 7.40402 13.125 7.45195 13.1251 7.49999C13.1251 7.54804 13.1245 7.59597 13.1233 7.64378C13.1231 7.65011 13.1227 7.65638 13.1226 7.66265C13.1214 7.70466 13.1198 7.74665 13.1178 7.78862L13.1175 7.7929C13.0451 9.18158 12.4608 10.4942 11.4776 11.4775C10.4943 12.4608 9.18166 13.045 7.79299 13.1174L7.78865 13.1177C7.74675 13.1198 7.70486 13.1213 7.66273 13.1225C7.65646 13.1226 7.65019 13.123 7.64386 13.1232C7.59601 13.1243 7.54808 13.125 7.50008 13.125C7.45203 13.125 7.4041 13.1244 7.35629 13.1232C7.34996 13.123 7.34369 13.1226 7.33742 13.1225C7.29541 13.1213 7.25342 13.1197 7.21144 13.1177L7.20717 13.1174C5.81849 13.045 4.50585 12.4608 3.52257 11.4775C2.53929 10.4942 1.95507 9.18158 1.88263 7.7929L1.8824 7.78857C1.88034 7.74661 1.87874 7.70464 1.8776 7.66265C1.87742 7.65638 1.87707 7.65011 1.87689 7.64378C1.87568 7.59597 1.87506 7.54804 1.87502 7.49999C1.87502 7.45195 1.87562 7.40402 1.87683 7.3562C1.87701 7.34987 1.87736 7.34361 1.87754 7.33734C1.87871 7.29527 1.88023 7.25331 1.88234 7.21136L1.88258 7.20708C1.95502 5.81841 2.53925 4.50578 3.52253 3.52251C4.50581 2.53923 5.81843 1.955 7.20711 1.88255L7.21144 1.88232C7.2534 1.88025 7.29537 1.87865 7.33736 1.87751C7.34363 1.87734 7.3499 1.87698 7.35623 1.87681C7.40404 1.87564 7.45197 1.87503 7.50002 1.87499C7.54806 1.87499 7.59599 1.8756 7.64381 1.87681C7.65013 1.87698 7.6564 1.87734 7.66267 1.87751C7.70474 1.87868 7.7467 1.88021 7.78865 1.88232L7.79293 1.88255C9.18161 1.95498 10.4942 2.53921 11.4775 3.52249C12.4608 4.50577 13.045 5.8184 13.1175 7.20708L13.1177 7.21142C13.1198 7.25331 13.1213 7.29521 13.1225 7.33734C13.1227 7.34361 13.123 7.34987 13.1232 7.3562H13.1233ZM11.25 7.49999C11.25 7.37567 11.2006 7.25644 11.1127 7.16854C11.0248 7.08063 10.9056 7.03124 10.7813 7.03124H7.96877V4.21874C7.96877 4.09442 7.91938 3.97519 7.83147 3.88729C7.74357 3.79938 7.62434 3.74999 7.50002 3.74999C7.3757 3.74999 7.25647 3.79938 7.16856 3.88729C7.08065 3.97519 7.03127 4.09442 7.03127 4.21874V7.49999C7.03127 7.62431 7.08065 7.74354 7.16856 7.83145C7.25647 7.91936 7.3757 7.96874 7.50002 7.96874H10.7813C10.9056 7.96874 11.0248 7.91936 11.1127 7.83145C11.2006 7.74354 11.25 7.62431 11.25 7.49999Z" fill="#6B6B6B"/>
</svg>
